<?xml version="1.0" encoding="iso-8859-1"?>
<!-- Generator: Adobe Illustrator 19.0.0, SVG Export Plug-In . SVG Version: 6.00 Build 0)  -->
<svg version="1.1" id="Capa_1" xmlns="http://www.w3.org/2000/svg" xmlns:xlink="http://www.w3.org/1999/xlink" x="0px" y="0px"
	 viewBox="0 0 512 512" style="enable-background:new 0 0 512 512;" xml:space="preserve">
<path style="fill:#303C42;" d="M462.521,234.667h-48.564c6.233-12.283,12.71-30.393,12.71-53.333
	c0-26.917-15.25-57.99-45.313-92.354C305.688,2.5,260.854,0,256,0c-4.854,0-49.688,2.5-125.354,88.979
	c-30.063,34.365-45.313,65.438-45.313,92.354c0,22.94,6.477,41.051,12.71,53.333H49.479C22.188,234.667,0,256.865,0,284.156
	c0,3.25,0.312,6.5,0.958,9.708l36.771,183.833C41.708,497.573,59.313,512,79.563,512h352.875c20.25,0,37.854-14.427,41.833-34.302
	l36.771-183.844c0.646-3.198,0.958-6.448,0.958-9.698C512,256.865,489.813,234.667,462.521,234.667z"/>
<path style="fill:#5F6369;" d="M313.371,234.667c13.676-12.871,20.478-28.242,23.775-36.354
	c12.906-5.264,21.624-22.72,24.445-35.204c25.841,8.272,38.715,17.927,43.483,22.268c-1.052,24.578-10.897,42.165-15.762,49.29
	H313.371z"/>
<path style="fill:#ADB3B8;" d="M194.208,189.271c-0.813-1.958-1.458-3.573-2.021-4.719c-1.792-3.688-5.188-5.99-9.292-5.99
	c-3.845-1.128-10.741-13.637-11.974-20.967c21.56-4.807,49.327-8.262,85.078-8.262c35.753,0,63.521,3.456,85.078,8.259
	c-1.229,7.331-8.1,19.84-11.661,20.939c-4.083,0-7.813,2.333-9.604,6.021c-0.563,1.146-1.208,2.76-2.021,4.719
	c-5.958,14.74-18.375,45.396-61.792,45.396S200.167,204.01,194.208,189.271z"/>
<path style="opacity:0.1;enable-background:new    ;" d="M180.945,176.964c19.967-3.715,44.34-6.297,74.799-6.297
	c30.755,0,55.305,2.633,75.372,6.405c3.712-3.353,8.897-13.138,9.961-19.479c-21.557-4.803-49.326-8.259-85.078-8.259
	c-35.751,0-63.518,3.454-85.078,8.262C171.974,163.849,177.061,173.454,180.945,176.964z"/>
<path style="fill:#797D82;" d="M146.688,103.021c69.229-79.094,109.146-81.677,109.083-81.688
	c0.396,0.01,40.313,2.594,109.542,81.688c16.753,19.152,28.387,37.112,34.639,53.159C376.194,143.094,332.362,128,256,128
	s-120.194,15.094-143.952,28.18C118.301,140.133,129.935,122.173,146.688,103.021z"/>
<path style="opacity:0.2;fill:#FFFFFF;enable-background:new    ;" d="M134.501,128.174
	c76.947-79.094,121.314-81.677,121.243-81.688c0.44,0.01,44.807,2.594,121.754,81.688c7.962,8.19,14.663,16.104,20.521,23.802
	c-6.557-14.977-17.376-31.428-32.707-48.956c-69.229-79.094-109.146-81.677-109.542-81.688c0.063,0.01-39.854,2.594-109.083,81.688
	c-15.331,17.527-26.15,33.979-32.707,48.956C119.839,144.279,126.539,136.365,134.501,128.174z"/>
<path style="fill:#5F6369;" d="M106.924,185.402c4.849-4.411,17.738-14.038,43.487-22.288c2.822,12.484,11.538,29.934,24.443,35.198
	c3.297,8.112,10.099,23.483,23.775,36.354h-75.986C117.758,227.595,107.969,210.181,106.924,185.402z"/>
<path style="opacity:0.2;enable-background:new    ;" d="M313.371,234.667c13.676-12.871,20.478-28.242,23.775-36.354
	c12.906-5.264,21.624-22.72,24.445-35.204c25.841,8.272,38.715,17.927,43.483,22.268c-1.052,24.578-10.897,42.165-15.762,49.29
	H313.371z"/>
<path style="opacity:0.2;enable-background:new    ;" d="M106.924,185.402c4.849-4.411,17.738-14.038,43.487-22.288
	c2.822,12.484,11.538,29.934,24.443,35.198c3.297,8.112,10.099,23.483,23.775,36.354h-75.986
	C117.758,227.595,107.969,210.181,106.924,185.402z"/>
<path style="fill:#F1F0ED;" d="M490.125,289.677L453.354,473.51c-2,9.938-10.792,17.156-20.917,17.156H79.563
	c-10.125,0-18.917-7.219-20.917-17.156L21.875,289.688c-0.354-1.823-0.542-3.677-0.542-5.531c0-15.521,12.625-28.156,28.146-28.156
	h413.042c15.521,0,28.146,12.635,28.146,28.156C490.667,286.01,490.479,287.865,490.125,289.677z"/>
<path style="opacity:0.1;enable-background:new    ;" d="M476.039,259.953c2.297,4.076,3.961,8.534,3.961,13.536
	c0,1.854-0.188,3.708-0.542,5.521l-36.771,183.833c-2,9.938-10.792,17.156-20.917,17.156H68.896c-3.03,0-5.844-0.815-8.488-1.987
	c3.41,7.464,10.689,12.654,19.155,12.654h352.875c10.125,0,18.917-7.219,20.917-17.156l36.771-183.833
	c0.354-1.813,0.542-3.667,0.542-5.521C490.667,273.632,484.616,264.784,476.039,259.953z"/>
<circle style="fill:#D7D8D6;" cx="256" cy="384" r="21.333"/>
<linearGradient id="SVGID_1_" gradientUnits="userSpaceOnUse" x1="-44.9837" y1="637.366" x2="-23.0001" y2="627.1143" gradientTransform="matrix(21.3333 0 0 -21.3333 996.3334 13791.667)">
	<stop  offset="0" style="stop-color:#FFFFFF;stop-opacity:0.2"/>
	<stop  offset="1" style="stop-color:#FFFFFF;stop-opacity:0"/>
</linearGradient>
<path style="fill:url(#SVGID_1_);" d="M462.521,234.667h-48.564c6.233-12.283,12.71-30.393,12.71-53.333
	c0-26.917-15.25-57.99-45.313-92.354C305.688,2.5,260.854,0,256,0c-4.854,0-49.688,2.5-125.354,88.979
	c-30.063,34.365-45.313,65.438-45.313,92.354c0,22.94,6.477,41.051,12.71,53.333H49.479C22.188,234.667,0,256.865,0,284.156
	c0,3.25,0.312,6.5,0.958,9.708l36.771,183.833C41.708,497.573,59.313,512,79.563,512h352.875c20.25,0,37.854-14.427,41.833-34.302
	l36.771-183.844c0.646-3.198,0.958-6.448,0.958-9.698C512,256.865,489.813,234.667,462.521,234.667z"/>
<g>
</g>
<g>
</g>
<g>
</g>
<g>
</g>
<g>
</g>
<g>
</g>
<g>
</g>
<g>
</g>
<g>
</g>
<g>
</g>
<g>
</g>
<g>
</g>
<g>
</g>
<g>
</g>
<g>
</g>
</svg>
